# Blender v2.82 (sub 7) OBJ File: ''
# www.blender.org
o Bishop_02
v -0.480000 0.480000 0.480000
v -0.240000 0.480000 0.480000
v -0.480000 0.480000 0.240000
v 0.000000 0.480000 0.240000
v -0.240000 0.480000 0.000000
v 0.240000 0.480000 0.000000
v 0.000000 0.480000 -0.240000
v 0.480000 0.480000 -0.240000
v 0.240000 0.480000 -0.480000
v 0.480000 0.480000 -0.480000
v 0.480000 0.480000 0.240000
v 0.240000 0.480000 0.480000
v 0.480000 0.480000 0.480000
v -0.480000 0.480000 -0.240000
v -0.240000 0.480000 -0.480000
v -0.480000 0.480000 -0.480000
v 0.000000 -0.480000 0.240000
v -0.240000 -0.480000 0.480000
v 0.240000 -0.480000 0.480000
v 0.240000 -0.480000 -0.000000
v 0.480000 -0.480000 0.240000
v 0.480000 -0.480000 -0.240000
v -0.480000 -0.480000 0.240000
v -0.240000 -0.480000 -0.000000
v -0.480000 -0.480000 -0.240000
v 0.000000 -0.480000 -0.240000
v 0.240000 -0.480000 -0.480000
v -0.240000 -0.480000 -0.480000
v 0.480000 -0.480000 0.480000
v 0.480000 -0.480000 -0.480000
v -0.480000 -0.480000 0.480000
v -0.480000 -0.480000 -0.480000
vt 2.328260 1.394449
vt 2.199074 1.596714
vt 2.125995 1.265263
vt 1.867623 1.669792
vt 1.794544 1.338342
vt 1.536172 1.742871
vt 1.463094 1.411420
vt 1.204721 1.815950
vt 1.131643 1.484499
vt 1.002457 1.686764
vt 1.609251 2.074322
vt 1.940702 2.001243
vt 1.811516 2.203508
vt 1.721466 1.006891
vt 1.390015 1.079969
vt 1.519201 0.877705
vt 1.432824 3.503474
vt 1.250127 3.789519
vt 0.623765 2.986730
vt 0.441069 3.272775
vt 2.013781 2.332694
vt 2.299826 2.515390
vt 1.497037 3.141753
vt 1.783082 3.324449
vt 1.323205 1.891625
vt 0.806462 2.700684
vt 1.092507 2.883381
vt 0.662901 1.587848
vt 0.331450 1.660926
vt 0.456203 0.650363
vt 0.124752 0.723442
vt 0.991755 4.194048
vt 0.809059 4.480093
vt 0.182697 3.677304
vt 0.000000 3.963350
vt 2.732028 1.131644
vt 2.658950 0.800193
vt 1.256396 0.473936
vt 0.924945 0.547014
vt 1.618117 0.538149
vt 1.545038 0.206698
vt 2.555601 0.331451
vt 2.482522 0.000000
vt 1.294772 3.012567
vt 0.690574 0.598689
vt 0.897272 1.536173
vt 0.311883 3.475040
vt 1.120941 3.991784
vt 2.607275 0.565822
vt 1.669791 0.772520
vt 0.337720 2.804033
vt 0.520416 2.517988
vt 0.703113 2.231942
vt 0.989158 2.414639
vt 0.937484 2.180268
vt 0.206698 3.324450
vt 0.155023 3.090079
vt 0.234371 2.335291
vt 0.051674 2.621337
vt 0.000000 2.386966
vt 0.909811 3.169426
vt 1.144182 3.117752
vn 0.0000 1.0000 0.0000
vn 0.7071 -0.0000 0.7071
vn -0.7071 -0.0000 0.7071
vn 0.7071 0.0000 -0.7071
vn -0.7071 0.0000 -0.7071
vn 0.0000 -0.0000 1.0000
vn 1.0000 0.0000 0.0000
vn -1.0000 0.0000 0.0000
vn 0.0000 0.0000 -1.0000
vn -0.0000 -1.0000 -0.0000
s 1
f 1/1/1 2/2/1 3/3/1
f 3/3/1 2/2/1 4/4/1
f 3/3/1 4/4/1 5/5/1
f 5/5/1 4/4/1 6/6/1
f 5/5/1 6/6/1 7/7/1
f 7/7/1 6/6/1 8/8/1
f 7/7/1 8/8/1 9/9/1
f 9/9/1 8/8/1 10/10/1
f 6/6/1 4/4/1 11/11/1
f 11/11/1 4/4/1 12/12/1
f 11/11/1 12/12/1 13/13/1
f 5/5/1 7/7/1 14/14/1
f 14/14/1 7/7/1 15/15/1
f 14/14/1 15/15/1 16/16/1
f 4/17/2 2/18/2 17/19/2
f 17/19/2 2/18/2 18/20/2
f 12/21/3 4/22/3 19/23/3
f 19/23/3 4/22/3 17/24/3
f 6/25/4 11/11/4 20/26/4
f 20/26/4 11/11/4 21/27/4
f 8/28/2 6/29/2 22/30/2
f 22/30/2 6/29/2 20/31/2
f 3/32/5 5/33/5 23/34/5
f 23/34/5 5/33/5 24/35/5
f 5/5/3 14/14/3 24/36/3
f 24/36/3 14/14/3 25/37/3
f 7/7/5 9/9/5 26/38/5
f 26/38/5 9/9/5 27/39/5
f 15/40/4 7/41/4 28/42/4
f 28/42/4 7/41/4 26/43/4
f 19/23/6 29/44/6 12/21/6
f 12/21/6 29/44/6 13/13/6
f 22/30/7 30/45/7 8/28/7
f 8/28/7 30/45/7 10/46/7
f 11/11/7 13/13/7 21/27/7
f 21/27/7 13/13/7 29/44/7
f 23/34/8 31/47/8 3/32/8
f 3/32/8 31/47/8 1/48/8
f 28/42/9 32/49/9 15/40/9
f 15/40/9 32/49/9 16/50/9
f 9/9/9 10/46/9 27/39/9
f 27/39/9 10/46/9 30/45/9
f 14/14/8 16/50/8 25/37/8
f 25/37/8 16/50/8 32/49/8
f 2/18/6 1/48/6 18/20/6
f 18/20/6 1/48/6 31/47/6
f 18/20/10 24/51/10 17/19/10
f 17/19/10 24/51/10 26/52/10
f 17/19/10 26/52/10 20/26/10
f 20/26/10 26/52/10 27/53/10
f 20/26/10 27/53/10 22/54/10
f 22/54/10 27/53/10 30/55/10
f 31/56/10 23/57/10 18/20/10
f 18/20/10 23/57/10 24/51/10
f 26/52/10 24/51/10 28/58/10
f 28/58/10 24/51/10 25/59/10
f 28/58/10 25/59/10 32/60/10
f 17/19/10 20/26/10 19/61/10
f 19/61/10 20/26/10 21/27/10
f 19/61/10 21/27/10 29/62/10
