# Blender v2.82 (sub 7) OBJ File: ''
# www.blender.org
o Knight_02
v 0.000000 -0.000000 0.480000
v 0.000000 0.480000 0.480000
v 0.000000 0.000000 0.000000
v 0.000000 0.480000 0.000000
v -0.480000 -0.000000 0.480000
v -0.480000 0.000000 0.000000
v -0.480000 0.480000 0.000000
v -0.480000 0.480000 -0.480000
v 0.480000 0.480000 -0.480000
v 0.480000 0.480000 0.480000
v -0.480000 -0.480000 0.480000
v 0.480000 -0.480000 0.480000
v 0.000000 -0.480000 -0.480000
v 0.000000 0.000000 -0.480000
v 0.000000 -0.480000 -0.000000
v 0.480000 0.000000 -0.480000
v 0.480000 0.000000 0.000000
v 0.480000 -0.480000 -0.000000
v -0.480000 -0.480000 -0.480000
vt 1.440000 2.400000
vt 1.920000 2.400000
vt 1.440000 2.880000
vt 1.920000 2.880000
vt 2.880000 2.400000
vt 2.400000 2.400000
vt 2.880000 1.920000
vt 2.400000 1.920000
vt 2.400000 1.440000
vt 2.880000 1.440000
vt 2.880000 0.960000
vt 1.920000 0.960000
vt 1.920000 1.920000
vt 2.400000 1.920000
vt 1.440000 2.880000
vt 0.960000 2.880000
vt 0.960000 1.920000
vt 2.400000 0.000000
vt 2.400000 0.480000
vt 1.920000 0.000000
vt 1.920000 0.480000
vt 0.480000 0.480000
vt 0.000000 0.480000
vt 0.480000 0.000000
vt 0.000000 0.000000
vt 1.440000 0.480000
vt 1.440000 0.000000
vt 0.000000 2.400000
vt 0.480000 2.400000
vt 0.000000 2.880000
vt 0.480000 1.920000
vt 0.960000 1.440000
vt 1.440000 1.440000
vt 1.440000 0.960000
vt 0.480000 3.840000
vt 0.000000 3.840000
vt 0.480000 3.360000
vt 0.960000 3.360000
vt 2.880000 0.000000
vt 1.920000 0.480000
vn -1.0000 0.0000 0.0000
vn 0.0000 1.0000 0.0000
vn 0.0000 -0.0000 1.0000
vn 1.0000 0.0000 0.0000
vn 0.0000 -1.0000 -0.0000
vn 0.0000 0.0000 -1.0000
s 1
f 1/1/1 2/2/1 3/3/1
f 3/3/1 2/2/1 4/4/1
f 5/5/2 1/6/2 6/7/2
f 6/7/2 1/6/2 3/8/2
f 3/8/3 4/9/3 6/7/3
f 6/7/3 4/9/3 7/10/3
f 7/10/2 4/9/2 8/11/2
f 8/11/2 4/9/2 9/12/2
f 9/12/2 4/9/2 10/13/2
f 10/13/2 4/9/2 2/14/2
f 5/15/3 11/16/3 1/1/3
f 1/1/3 11/16/3 12/17/3
f 1/1/3 12/17/3 10/13/3
f 10/13/3 2/2/3 1/1/3
f 13/18/4 14/19/4 15/20/4
f 15/20/4 14/19/4 3/21/4
f 14/22/5 16/23/5 3/24/5
f 3/24/5 16/23/5 17/25/5
f 17/26/6 18/27/6 3/21/6
f 3/21/6 18/27/6 15/20/6
f 13/28/5 15/29/5 19/30/5
f 19/30/5 15/29/5 11/16/5
f 11/16/5 15/29/5 12/17/5
f 12/17/5 15/29/5 18/31/5
f 18/32/4 17/33/4 12/17/4
f 12/17/4 17/33/4 10/13/4
f 10/13/4 17/33/4 9/12/4
f 9/12/4 17/33/4 16/34/4
f 7/35/1 8/36/1 6/37/1
f 6/37/1 8/36/1 19/30/1
f 6/37/1 19/30/1 11/16/1
f 11/16/1 5/38/1 6/37/1
f 13/18/6 19/39/6 14/19/6
f 14/19/6 19/39/6 8/11/6
f 14/19/6 8/11/6 9/12/6
f 9/12/6 16/40/6 14/19/6
