# Blender v2.82 (sub 7) OBJ File: ''
# www.blender.org
o Pawn_02
v 36.000000 -24.000000 -0.000000
v 12.000000 -24.000000 -0.000000
v 36.000000 -48.000000 -0.000000
v 12.000000 -48.000000 -0.000000
v 12.000000 -24.000000 -24.000000
v 36.000000 -24.000000 -24.000000
v 12.000000 -48.000000 -24.000000
v 36.000000 -48.000000 -24.000000
vn 0.0000 0.0000 1.0000
vn 0.0000 1.0000 0.0000
vn -1.0000 0.0000 0.0000
vn 0.0000 -1.0000 0.0000
vn 1.0000 0.0000 0.0000
vn 0.0000 0.0000 -1.0000
s off
f 1//1 2//1 3//1
f 3//1 2//1 4//1
f 2//2 1//2 5//2
f 5//2 1//2 6//2
f 4//3 2//3 7//3
f 7//3 2//3 5//3
f 3//4 4//4 8//4
f 8//4 4//4 7//4
f 1//5 3//5 6//5
f 6//5 3//5 8//5
f 6//6 8//6 5//6
f 5//6 8//6 7//6
