# Blender v2.82 (sub 7) OBJ File: ''
# www.blender.org
o Rook_02
v 48.000000 -72.000000 0.000000
v 0.000000 -72.000000 0.000000
v 48.000000 -120.000000 0.000000
v 0.000000 -120.000000 0.000000
v 0.000000 -120.000000 -48.000000
v 0.000000 -72.000000 -48.000000
v 48.000000 -120.000000 -48.000000
v 48.000000 -72.000000 -48.000000
vn 0.0000 0.0000 1.0000
vn -1.0000 0.0000 0.0000
vn 0.0000 -1.0000 0.0000
vn 1.0000 0.0000 0.0000
vn 0.0000 1.0000 0.0000
vn 0.0000 0.0000 -1.0000
s off
f 1//1 2//1 3//1
f 3//1 2//1 4//1
f 4//2 2//2 5//2
f 5//2 2//2 6//2
f 3//3 4//3 7//3
f 7//3 4//3 5//3
f 1//4 3//4 8//4
f 8//4 3//4 7//4
f 2//5 1//5 6//5
f 6//5 1//5 8//5
f 8//6 7//6 6//6
f 6//6 7//6 5//6
