# Blender v2.82 (sub 7) OBJ File: ''
# www.blender.org
o Rook_02
v 0.480000 0.480000 0.480000
v -0.480000 0.480000 0.480000
v 0.480000 -0.480000 0.480000
v -0.480000 -0.480000 0.480000
v -0.480000 -0.480000 -0.480000
v -0.480000 0.480000 -0.480000
v 0.480000 -0.480000 -0.480000
v 0.480000 0.480000 -0.480000
vt 1.920000 0.960000
vt 1.920000 1.920000
vt 0.960000 0.960000
vt 0.960000 1.920000
vt 0.960000 2.880000
vt 1.920000 2.880000
vt 0.000000 0.960000
vt 0.000000 1.920000
vt 1.919999 0.000000
vt 0.959999 0.000000
vt 2.880000 1.920000
vt 2.880000 0.960000
vt 1.920000 3.839999
vt 0.960000 3.840000
vn 0.0000 -0.0000 1.0000
vn -1.0000 0.0000 0.0000
vn 0.0000 -1.0000 -0.0000
vn 1.0000 0.0000 0.0000
vn 0.0000 1.0000 0.0000
vn 0.0000 0.0000 -1.0000
s 1
f 1/1/1 2/2/1 3/3/1
f 3/3/1 2/2/1 4/4/1
f 4/4/2 2/2/2 5/5/2
f 5/5/2 2/2/2 6/6/2
f 3/3/3 4/4/3 7/7/3
f 7/7/3 4/4/3 5/8/3
f 1/1/4 3/3/4 8/9/4
f 8/9/4 3/3/4 7/10/4
f 2/2/5 1/1/5 6/11/5
f 6/11/5 1/1/5 8/12/5
f 8/13/6 7/14/6 6/6/6
f 6/6/6 7/14/6 5/5/6
